# File created by Blade
# Date/Time:  Thu Jan 22 19:18:16 2015
# Frame Rate: 120.000 fps
#------------------------------------------------------
:FULLY-SPECIFIED
:DEGREES
937
root -0.272347 31.649234 -7.579613 83.297342 27.346423 -8.666657
RightUpLeg -82.190778 -6.057816 15.214450
RightLeg -4.422935 -0.000000 0.000000
RightFoot -4.425157 -7.343171 16.379458
RightToeBase 6.945225 -0.000000 -0.000000
LeftUpLeg -98.862556 26.387019 23.328697
LeftLeg 4.731977 -0.000000 -0.000000
LeftFoot 5.808354 -0.602469 -24.413273
LeftToeBase 5.321993 -0.000000 -0.000000
Spine 41.723870 16.653558 -20.260897
RightShoulder -1.628907 27.266992 -47.861412
RightArm 75.334036 18.223517 44.668012
RightForeArm -29.887761 0.000000 41.604210
RightHand 12.970924 -0.000000 1.474576
RightHandThumb1 -24.326973 -0.000000 -32.862282
LeftShoulder 2.274841 -27.042958 34.417935
LeftArm 40.861633 -20.593623 -60.187047
LeftForeArm -32.677858 0.000000 58.698016
LeftHand -2.881764 -0.000000 -18.671980
LeftHandThumb1 -26.253704 0.000000 33.147579
Head -48.176601 4.784702 -10.766846
938
root -0.293157 31.648117 -7.569962 83.167886 27.317130 -8.755021
RightUpLeg -82.062218 -5.954697 15.117456
RightLeg -4.441319 -0.000000 0.000000
RightFoot -4.443745 -7.417305 16.391640
RightToeBase 6.918116 -0.000000 -0.000000
LeftUpLeg -98.752715 26.437323 23.257266
LeftLeg 4.754484 -0.000000 -0.000000
LeftFoot 5.686384 -0.663593 -24.368469
LeftToeBase 5.643069 -0.000000 -0.000000
Spine 41.751453 16.734805 -20.393006
RightShoulder -1.645529 27.298070 -48.011203
RightArm 75.528965 17.973855 44.746745
RightForeArm -30.283879 -0.000000 41.099017
RightHand 12.959996 -0.000000 2.141262
RightHandThumb1 -24.326973 -0.000000 -32.862282
LeftShoulder 2.167976 -27.069462 34.221592
LeftArm 41.183250 -20.623772 -60.415808
LeftForeArm -32.520156 -0.000000 58.753342
LeftHand -3.120096 -0.000000 -18.318819
LeftHandThumb1 -26.253704 0.000000 33.147579
Head -48.131415 4.754794 -11.115388
939
root -0.315792 31.648646 -7.560988 83.074823 27.314013 -8.826168
RightUpLeg -81.964464 -5.857065 15.050692
RightLeg -4.462900 -0.000000 0.000000
RightFoot -4.453522 -7.505881 16.355615
RightToeBase 6.947436 -0.000000 -0.000000
LeftUpLeg -98.644499 26.512313 23.306256
LeftLeg 4.747462 -0.000000 -0.000000
LeftFoot 5.696339 -0.663456 -24.380346
LeftToeBase 5.690559 -0.000000 -0.000000
Spine 41.715808 16.795963 -20.516740
RightShoulder -1.641810 27.386129 -48.081840
RightArm 75.659243 17.709040 44.897119
RightForeArm -30.911247 -0.000000 40.693332
RightHand 12.941522 -0.000000 1.438714
RightHandThumb1 -24.326973 -0.000000 -32.862282
LeftShoulder 2.139944 -26.975057 34.079219
LeftArm 41.486483 -20.732668 -60.628011
LeftForeArm -32.285885 -0.000000 58.798468
LeftHand -3.331329 -0.000000 -18.106365
LeftHandThumb1 -26.253704 0.000000 33.147579
Head -48.016894 4.660783 -11.406952
940
root -0.338625 31.649297 -7.553258 82.977832 27.317134 -8.890464
RightUpLeg -81.865234 -5.768855 14.991541
RightLeg -4.484566 -0.000000 0.000000
RightFoot -4.505943 -7.602754 16.410926
RightToeBase 7.095722 -0.000000 -0.000000
LeftUpLeg -98.540485 26.578977 23.394297
LeftLeg 4.756443 -0.000000 -0.000000
LeftFoot 5.743409 -0.601426 -24.381886
LeftToeBase 5.609564 -0.000000 -0.000000
Spine 41.686615 16.890065 -20.609460
RightShoulder -1.616024 27.383572 -48.073934
RightArm 75.816371 17.634982 45.115060
RightForeArm -30.621771 0.000000 40.314546
RightHand 12.904921 -0.000000 0.969381
RightHandThumb1 -24.326973 -0.000000 -32.862282
LeftShoulder 2.147952 -26.831762 33.976377
LeftArm 41.818682 -20.848459 -60.865327
LeftForeArm -32.163483 0.000000 58.815919
LeftHand -3.358866 -0.000000 -17.843905
LeftHandThumb1 -26.253704 0.000000 33.147579
Head -47.887454 4.543743 -11.648542
941
root -0.355439 31.649656 -7.547241 82.904839 27.306521 -8.940846
RightUpLeg -81.794499 -5.697834 14.918944
RightLeg -4.486531 -0.000000 0.000000
RightFoot -4.522787 -7.673791 16.391144
RightToeBase 7.076294 -0.000000 -0.000000
LeftUpLeg -98.417044 26.640856 23.547626
LeftLeg 4.761407 -0.000000 -0.000000
LeftFoot 5.751867 -0.459774 -24.439935
LeftToeBase 5.738717 -0.000000 -0.000000
Spine 41.681954 16.903451 -20.718398
RightShoulder -1.652275 27.494422 -48.124948
RightArm 76.027069 17.559896 45.546264
RightForeArm -29.969770 -0.000000 39.968765
RightHand 12.828632 -0.000000 0.944356
RightHandThumb1 -24.326973 -0.000000 -32.862282
LeftShoulder 2.098283 -27.038189 33.911537
LeftArm 41.708544 -20.815509 -60.967439
LeftForeArm -32.090359 -0.000000 58.927909
LeftHand -3.473572 -0.000000 -17.671933
LeftHandThumb1 -26.253704 0.000000 33.147579
Head -47.854380 4.479506 -11.984955
942
root -0.366548 31.648507 -7.544888 82.826943 27.263726 -8.981219
RightUpLeg -81.740518 -5.644596 14.810888
RightLeg -4.452840 -0.000000 0.000000
RightFoot -4.566233 -7.725377 16.392081
RightToeBase 7.116828 -0.000000 -0.000000
LeftUpLeg -98.243155 26.705199 23.865049
LeftLeg 4.863256 -0.000000 -0.000000
LeftFoot 5.618503 -0.188128 -24.596651
LeftToeBase 5.917642 -0.000000 -0.000000
Spine 41.696499 16.903726 -20.822623
RightShoulder -1.678550 27.521228 -48.181017
RightArm 76.296111 17.572187 46.077035
RightForeArm -29.871628 -0.000000 39.746591
RightHand 12.798031 -0.000000 0.978738
RightHandThumb1 -24.326973 -0.000000 -32.862282
LeftShoulder 2.052121 -26.909968 33.766589
LeftArm 41.952332 -20.935133 -61.089030
LeftForeArm -32.110867 -0.000000 58.987858
LeftHand -3.415335 -0.000000 -17.486439
LeftHandThumb1 -26.253704 0.000000 33.147579
Head -47.794392 4.381420 -12.339471
943
root -0.379862 31.648006 -7.540095 82.762298 27.235864 -9.031374
RightUpLeg -81.695189 -5.580538 14.775327
RightLeg -4.437754 -0.000000 0.000000
RightFoot -4.565056 -7.739151 16.328328
RightToeBase 7.050616 -0.000000 -0.000000
LeftUpLeg -98.102541 26.765965 24.010563
LeftLeg 4.830370 -0.000000 -0.000000
LeftFoot 5.598015 -0.025614 -24.735991
LeftToeBase 6.025162 -0.000000 -0.000000
Spine 41.677045 16.941469 -20.938133
RightShoulder -1.675826 27.457065 -48.122293
RightArm 76.614860 17.674680 46.462150
RightForeArm -29.890605 -0.000000 39.531465
RightHand 12.775343 -0.000000 1.100259
RightHandThumb1 -24.326973 -0.000000 -32.862282
LeftShoulder 2.009982 -26.514226 33.669529
LeftArm 42.494934 -21.188002 -61.322779
LeftForeArm -31.876933 0.000000 59.082268
LeftHand -3.661915 -0.000000 -17.166022
LeftHandThumb1 -26.253704 0.000000 33.147579
Head -47.747690 4.291259 -12.602024
944
root -0.393788 31.648324 -7.536533 82.704363 27.216970 -9.085671
RightUpLeg -81.657647 -5.508891 14.748405
RightLeg -4.423144 -0.000000 0.000000
RightFoot -4.581880 -7.761489 16.324406
RightToeBase 7.071542 -0.000000 -0.000000
LeftUpLeg -97.964032 26.835461 24.169018
LeftLeg 4.784457 -0.000000 -0.000000
LeftFoot 5.587884 0.107573 -24.781670
LeftToeBase 6.065342 -0.000000 -0.000000
Spine 41.644432 16.934517 -21.043907
RightShoulder -1.662699 27.538914 -48.113679
RightArm 76.818872 17.695990 46.715113
RightForeArm -29.654759 -0.000000 39.314719
RightHand 12.671844 -0.000000 1.539236
RightHandThumb1 -24.326973 -0.000000 -32.862282
LeftShoulder 1.932826 -26.330806 33.569243
LeftArm 42.810464 -21.321737 -61.418126
LeftForeArm -31.641248 -0.000000 59.096657
LeftHand -3.727268 -0.000000 -17.191353
LeftHandThumb1 -26.253704 0.000000 33.147579
Head -47.673989 4.219802 -12.921926
945
root -0.409104 31.648232 -7.532564 82.643606 27.208841 -9.147679
RightUpLeg -81.614962 -5.429990 14.748545
RightLeg -4.418503 -0.000000 0.000000
RightFoot -4.575872 -7.787457 16.237066
RightToeBase 7.058370 -0.000000 -0.000000
LeftUpLeg -97.849798 26.912221 24.298913
LeftLeg 4.762693 -0.000000 -0.000000
LeftFoot 5.573429 0.189398 -24.818871
LeftToeBase 6.092475 -0.000000 -0.000000
Spine 41.618227 16.950580 -21.119356
RightShoulder -1.709467 27.559803 -48.156839
RightArm 77.062686 17.746507 46.927624
RightForeArm -29.438033 0.000000 39.086472
RightHand 12.702521 -0.000000 1.876458
RightHandThumb1 -24.326973 -0.000000 -32.862282
LeftShoulder 1.851684 -26.232912 33.473006
LeftArm 43.079031 -21.420608 -61.501391
LeftForeArm -31.481480 -0.000000 59.079338
LeftHand -3.843113 -0.000000 -17.144857
LeftHandThumb1 -26.253704 0.000000 33.147579
Head -47.601052 4.126678 -13.204064
946
root -0.424175 31.648648 -7.528815 82.596347 27.194113 -9.216057
RightUpLeg -81.594056 -5.346711 14.772906
RightLeg -4.405010 -0.000000 0.000000
RightFoot -4.556917 -7.771994 16.205061
RightToeBase 7.048603 -0.000000 -0.000000
LeftUpLeg -97.680180 27.016028 24.550868
LeftLeg 4.730726 -0.000000 -0.000000
LeftFoot 5.518177 0.350979 -24.884423
LeftToeBase 6.078743 -0.000000 -0.000000
Spine 41.571044 16.935098 -21.211517
RightShoulder -1.768969 27.618020 -48.263682
RightArm 77.251060 17.765367 46.994211
RightForeArm -29.324565 -0.000000 38.870186
RightHand 12.624264 -0.000000 1.687267
RightHandThumb1 -24.326973 -0.000000 -32.862282
LeftShoulder 1.756284 -26.182587 33.371861
LeftArm 43.260608 -21.502217 -61.522949
LeftForeArm -31.184236 -0.000000 59.094515
LeftHand -4.099803 -0.000000 -17.037368
LeftHandThumb1 -26.253704 0.000000 33.147579
Head -47.537161 4.067087 -13.527239
947
root -0.439136 31.648528 -7.524931 82.557631 27.177031 -9.280272
RightUpLeg -81.574345 -5.265397 14.798520
RightLeg -4.405806 -0.000000 0.000000
RightFoot -4.543662 -7.757081 16.183085
RightToeBase 7.030366 -0.000000 -0.000000
LeftUpLeg -97.546497 27.111176 24.740852
LeftLeg 4.710571 -0.000000 -0.000000
LeftFoot 5.459365 0.467113 -24.942138
LeftToeBase 6.142029 -0.000000 -0.000000
Spine 41.518899 16.906039 -21.309928
RightShoulder -1.867862 27.683259 -48.435338
RightArm 77.404600 17.764597 46.947474
RightForeArm -29.141637 -0.000000 38.637162
RightHand 12.569775 -0.000000 1.658631
RightHandThumb1 -24.326973 -0.000000 -32.862282
LeftShoulder 1.678113 -26.174501 33.271097
LeftArm 43.341980 -21.580877 -61.467462
LeftForeArm -30.948417 0.000000 59.137152
LeftHand -4.198160 0.000000 -16.966501
LeftHandThumb1 -26.253704 0.000000 33.147579
Head -47.481285 4.041856 -13.808021
948
root -0.454777 31.648597 -7.521594 82.524309 27.130113 -9.348353
RightUpLeg -81.575573 -5.177297 14.819329
RightLeg -4.389764 -0.000000 0.000000
RightFoot -4.536243 -7.711112 16.156359
RightToeBase 7.078949 -0.000000 -0.000000
LeftUpLeg -97.414380 27.218236 24.891037
LeftLeg 4.686043 -0.000000 -0.000000
LeftFoot 5.404299 0.577189 -25.012670
LeftToeBase 6.166667 -0.000000 -0.000000
Spine 41.422986 16.916579 -21.443406
RightShoulder -1.911237 27.627474 -48.534036
RightArm 77.587275 17.847576 46.693991
RightForeArm -28.942942 0.000000 38.330444
RightHand 12.469923 -0.000000 1.921939
RightHandThumb1 -24.326973 -0.000000 -32.862282
LeftShoulder 1.670162 -26.070460 33.215906
LeftArm 43.453525 -21.725764 -61.436459
LeftForeArm -30.719273 0.000000 59.166257
LeftHand -4.275060 -0.000000 -16.897176
LeftHandThumb1 -26.253704 0.000000 33.147579
Head -47.344686 3.946601 -14.019374
949
root -0.466343 31.649749 -7.520531 82.553764 27.090557 -9.376384
RightUpLeg -81.630171 -5.124371 14.856119
RightLeg -4.372994 -0.000000 0.000000
RightFoot -4.515141 -7.648460 16.128098
RightToeBase 7.044601 -0.000000 -0.000000
LeftUpLeg -97.367548 27.296283 24.989684
LeftLeg 4.676094 -0.000000 -0.000000
LeftFoot 5.370609 0.679316 -25.057085
LeftToeBase 6.197363 -0.000000 -0.000000
Spine 41.319660 16.828082 -21.559792
RightShoulder -2.043982 27.566106 -48.762614
RightArm 77.857980 17.884280 46.519193
RightForeArm -29.024736 -0.000000 37.974289
RightHand 12.407136 -0.000000 1.895756
RightHandThumb1 -24.326973 -0.000000 -32.862282
LeftShoulder 1.600219 -26.002905 33.092876
LeftArm 43.536524 -21.819484 -61.341925
LeftForeArm -30.543508 -0.000000 59.194721
LeftHand -4.423270 0.000000 -16.855749
LeftHandThumb1 -26.253704 0.000000 33.147579
Head -47.262224 3.852683 -14.315006
